<svg width="120" height="26" viewBox="0 0 120 26" fill="none" xmlns="http://www.w3.org/2000/svg">
<path d="M11.668 8.69398C11.5138 8.53981 11.3288 8.41647 11.1438 8.32397C11.853 7.4606 12.223 6.35054 12.223 5.20966C12.223 3.69876 11.5447 2.28036 10.3729 1.32448C9.44789 0.553611 8.27617 0.183594 6.73443 0.183594H0.320801V5.20966V7.42976V10.2049V13.0725V18.7461H7.53613C9.29371 18.7461 10.6196 18.3453 11.6372 17.4819C12.963 16.4027 13.7339 14.7993 13.7339 13.1034C13.7648 11.3766 12.9939 9.7732 11.668 8.69398ZM3.52761 3.17457H6.14857C7.62864 3.17457 8.12199 3.48291 8.39951 3.82209C8.73869 4.19211 8.95453 4.68547 8.95453 5.20966C8.95453 5.73385 8.76952 6.19637 8.39951 6.59722C8.09116 6.9364 7.62864 7.24475 6.14857 7.24475H3.52761V3.17457ZM9.7254 14.8918C9.29371 15.3235 8.64618 15.7243 6.95027 15.7243H3.52761V10.2666H6.98111C8.67702 10.2666 9.29371 10.6674 9.7254 11.0991C10.2188 11.6233 10.4963 12.3017 10.4963 12.98C10.4963 13.6892 10.2188 14.3676 9.7254 14.8918Z" fill="#313131"/>
<path d="M27.2087 6.07446H24.1869V18.7475H27.2087V6.07446Z" fill="#313131"/>
<path d="M25.6666 0.152344C24.6182 0.152344 23.7856 0.984882 23.7856 2.0641C23.7856 3.11248 24.6182 3.94502 25.6666 3.94502C26.7458 3.94502 27.5783 3.11248 27.5783 2.0641C27.5783 1.01572 26.7149 0.152344 25.6666 0.152344Z" fill="#313131"/>
<path d="M38.5868 6.90685C37.5692 6.19765 36.3975 5.82764 35.0716 5.82764C33.9307 5.82764 32.8515 6.10515 31.9573 6.62934C29.9531 7.80106 28.7197 10.0212 28.7197 12.3954C28.7197 14.8005 29.9222 16.959 31.9573 18.1307C32.8515 18.6549 34.0232 18.9632 35.1333 18.9632C36.3975 18.9632 37.5384 18.6241 38.4943 17.9457V18.0382C38.4943 19.4258 38.3093 20.3508 37.8776 20.9983C37.3226 21.8309 36.3975 22.2626 35.1641 22.2626C33.2215 22.2626 32.1732 21.2142 31.4023 20.2275L31.2173 19.9808L29.028 22.0159L29.1514 22.2009C30.0147 23.5576 32.1423 25.1302 35.2875 25.1302C37.7234 25.1302 39.7277 23.9893 40.7761 21.985C41.3002 20.9675 41.5161 19.7033 41.5161 17.884V6.07432H38.5868V6.90685ZM38.4943 14.5847C37.7542 15.5406 36.6134 16.1264 35.4416 16.1264C33.3449 16.1264 31.7106 14.4922 31.7106 12.4263C31.7106 10.2987 33.2524 8.7261 35.3183 8.7261C36.5209 8.7261 37.7234 9.31196 38.4943 10.2678V14.5847Z" fill="#313131"/>
<path d="M49.5027 5.82594C48.0535 5.82594 46.9434 6.35013 46.2342 6.84348V0.152344H43.2124V18.7457H46.2342V10.2661C46.8509 9.55694 47.8993 8.7244 49.441 8.7244C50.3352 8.7244 51.1986 9.12526 51.7228 9.80362C52.062 10.2353 52.3703 10.8212 52.3703 12.4246V18.7457H55.3921V12.5479C55.3921 10.5128 55.0221 9.18692 54.1587 8.07687C53.0179 6.65848 51.3528 5.82594 49.5027 5.82594Z" fill="#313131"/>
<path d="M75.0951 6.62934C74.2009 6.10515 73.1217 5.82764 71.9808 5.82764C70.6549 5.82764 69.4832 6.19765 68.4656 6.90685V6.10515H65.5363V24.9452H68.5581V17.9765C69.514 18.6549 70.6549 18.9941 71.9191 18.9941C73.0292 18.9941 74.2317 18.6857 75.0951 18.1615C77.1302 16.959 78.3327 14.8314 78.3327 12.4263C78.3636 10.052 77.0993 7.8319 75.0951 6.62934ZM71.6108 16.1264C70.4699 16.1264 69.329 15.5406 68.5581 14.5847V10.237C69.329 9.28113 70.5007 8.69527 71.7341 8.69527C73.8 8.69527 75.3418 10.2987 75.3418 12.3954C75.3418 14.4922 73.7075 16.1264 71.6108 16.1264Z" fill="#313131"/>
<path d="M85.8257 5.82764C82.2489 5.82764 79.6588 8.60277 79.6588 12.4263C79.6588 16.1881 82.4647 19.0249 86.1957 19.0249C89.3409 19.0249 90.9443 17.3598 91.4993 16.6506L91.6535 16.4348L89.6492 14.5539L89.4642 14.7697C88.7858 15.5406 87.83 16.3115 86.1957 16.3115C84.3765 16.3115 82.8656 14.9856 82.5881 13.228H91.8385L91.8693 12.9813C91.9002 12.7346 91.9002 12.5496 91.9002 12.4263C91.9002 8.66443 89.2792 5.82764 85.8257 5.82764ZM82.8964 10.5762C83.3898 9.3428 84.5615 8.51026 85.9182 8.51026C87.1208 8.51026 88.2925 9.37363 88.7242 10.5762H82.8964Z" fill="#313131"/>
<path d="M103.031 6.90685C102.014 6.19765 100.842 5.82764 99.5162 5.82764C98.3753 5.82764 97.2961 6.10515 96.4019 6.62934C94.3976 7.80106 93.1642 10.0212 93.1642 12.3954C93.1642 14.8005 94.3668 16.959 96.4019 18.1307C97.2961 18.6549 98.4678 18.9632 99.5779 18.9632C100.842 18.9632 102.045 18.5932 103.031 17.9149V18.7166H105.961V6.07432H103.031V6.90685ZM102.939 14.5847C102.199 15.5406 101.058 16.1264 99.8862 16.1264C97.7895 16.1264 96.1552 14.4922 96.1552 12.4263C96.1552 10.2987 97.697 8.7261 99.7629 8.7261C100.965 8.7261 102.168 9.31196 102.939 10.2678V14.5847Z" fill="#313131"/>
<path d="M119.59 0H116.568V18.7475H119.59V0Z" fill="#313131"/>
<path d="M63.8406 15.9706C63.4398 16.0939 62.7614 16.1556 62.3297 16.1556C61.5897 16.1556 60.8497 15.8781 60.5105 15.4772C60.2021 15.1072 60.1405 14.5213 60.1405 13.7813V8.78607H63.8406V6.07262H60.1405V0.152344H57.1187V13.5963C57.1187 15.2614 57.4887 16.4948 58.2595 17.3273C59.2154 18.4065 60.5721 18.9615 62.2372 18.9615C62.7614 18.9615 63.3473 18.8999 63.8406 18.8074V15.9706Z" fill="#313131"/>
<path d="M22.5834 5.95098C22.1826 5.85847 21.7509 5.82764 21.3192 5.82764C19.87 5.82764 18.7599 6.35183 18.0507 6.84518V6.07432H15.0289V18.7474H18.0507V10.2678C18.6674 9.55864 19.7158 8.7261 21.2576 8.7261C21.7201 8.7261 22.1826 8.84944 22.6143 9.03445L22.5834 5.95098Z" fill="#313131"/>
<path d="M115.211 5.95098C114.81 5.85847 114.379 5.82764 113.947 5.82764C112.498 5.82764 111.388 6.35183 110.678 6.84518V6.07432H107.657V18.7474H110.678V10.2678C111.295 9.55864 112.343 8.7261 113.885 8.7261C114.348 8.7261 114.81 8.84944 115.242 9.03445L115.211 5.95098Z" fill="#313131"/>
</svg>
