<svg width="150" height="21" viewBox="0 0 150 21" fill="none" xmlns="http://www.w3.org/2000/svg">
<path d="M61.5627 0H66.2423V19.6634H61.5627V0Z" fill="#313131"/>
<path d="M70.4185 8.40089H68.1592V5.37199H70.4185C70.4185 1.26651 71.8517 0 75.8476 0C76.5879 0 77.3595 0.0545851 78.1032 0.0823289V3.38731C77.6647 3.33047 77.2533 3.30464 76.8382 3.30464C75.7648 3.30464 75.1034 3.44212 75.1034 4.73615V5.37199H77.9113V8.40089H75.1034V19.6634H70.4185V8.40089Z" fill="#313131"/>
<path d="M91.0245 14.9527C91.0245 15.6692 91.3256 16.1902 91.7956 16.5511C92.2341 16.883 92.8686 17.0479 93.5302 17.0479C94.4384 17.0479 95.731 16.6604 95.731 15.5322C95.731 14.4325 94.271 14.209 93.4482 14.0136C90.4996 13.2741 86.8109 13.1916 86.8109 9.33488C86.8109 5.89287 90.5265 4.95703 93.338 4.95703C96.4753 4.95703 99.7525 5.86727 99.9165 9.58186H95.594C95.594 8.97838 95.3748 8.59279 94.9869 8.34434C94.6031 8.09578 94.0787 7.98604 93.499 7.98604C92.7316 7.98604 91.4902 8.06849 91.4902 9.06049C91.4902 10.408 94.6306 10.6586 96.7801 11.1243C99.6703 11.704 100.414 13.7978 100.414 14.9804C100.414 18.81 96.78 20.0746 93.5574 20.0746C90.1706 20.0746 86.7013 18.9466 86.5604 14.9527H91.0245Z" fill="#313131"/>
<path d="M102.099 0H106.782V7.32442H106.837C107.553 5.86732 109.48 4.95708 111.187 4.95708C115.953 4.95708 116.337 8.42638 116.337 10.4937V19.6634H111.657V12.751C111.657 10.7952 111.877 8.8105 109.316 8.8105C107.553 8.8105 106.782 10.3002 106.782 11.8685V19.6634H102.099V0Z" fill="#313131"/>
<path d="M122.651 13.6607C122.733 15.615 123.864 16.9108 125.849 16.9108C126.973 16.9108 128.077 16.3826 128.516 15.3402H132.898C132.044 18.6453 128.986 20.0746 125.791 20.0746C121.139 20.0746 117.968 17.2672 117.968 12.475C117.968 8.09578 121.468 4.95703 125.681 4.95703C130.803 4.95703 133.364 8.81046 133.145 13.6607H122.651ZM128.462 11.0423C128.379 9.44472 127.252 8.12454 125.681 8.12454C124.029 8.12454 122.928 9.30905 122.651 11.0423H128.462Z" fill="#313131"/>
<path d="M135.057 5.37363H139.602V7.8763H139.657C140.346 6.0627 141.944 5.09766 143.953 5.09766C144.313 5.09766 144.696 5.12326 145.057 5.20547V9.47573C144.45 9.31085 143.898 9.19942 143.264 9.19942C140.953 9.19942 139.74 10.7968 139.74 12.5873V19.6651H135.057V5.37363Z" fill="#313131"/>
<path d="M80.0957 5.37196H84.7787V19.6634H80.0957V5.37196ZM84.762 0.0737305H80.0922V3.38728H84.762V0.0737305Z" fill="#313131"/>
<path d="M149.321 19.6551H144.651V16.3398H149.321V19.6551Z" fill="#313131"/>
<path d="M21.7428 13.6607C21.8249 15.615 22.9563 16.9108 24.9381 16.9108C26.0691 16.9108 27.1696 16.3826 27.6087 15.3402H31.9863C31.1362 18.6453 28.0783 20.0746 24.8833 20.0746C20.2308 20.0746 17.0634 17.2672 17.0634 12.475C17.0634 8.09578 20.5599 4.95703 24.7734 4.95703C29.8954 4.95703 32.4561 8.81046 32.2366 13.6607H21.7428ZM27.5536 11.0423C27.4714 9.44472 26.3436 8.12454 24.7734 8.12454C23.1208 8.12454 22.0204 9.30905 21.7428 11.0423H27.5536Z" fill="#313131"/>
<path d="M43.1762 19.6634C43.0114 19.2212 42.9567 18.7794 42.9019 18.3125C41.6883 19.5811 39.8987 20.0746 38.1949 20.0746C35.4658 20.0746 33.3198 18.6966 33.3198 15.7518C33.3198 11.097 38.3833 11.4592 41.6367 10.7951C42.4322 10.6309 42.8744 10.355 42.8744 9.47393C42.8744 8.40084 41.5786 7.98604 40.6152 7.98604C39.3228 7.98604 38.4966 8.5637 38.2735 9.77539H33.8957C33.9778 7.9018 34.8591 6.68999 36.1275 5.94937C37.3959 5.233 39.045 4.95703 40.6701 4.95703C44.0606 4.95703 47.3344 5.69934 47.3344 9.7481V19.6634H43.1762ZM39.9568 17.1847C42.1853 17.1847 42.9292 15.9163 42.8196 12.9708C42.158 13.3836 40.9477 13.466 39.9293 13.7426C38.8803 13.9896 37.9994 14.4325 37.9994 15.5596C37.9994 16.715 38.908 17.1847 39.9568 17.1847Z" fill="#313131"/>
<path d="M49.8066 5.37363H54.3525V7.8763H54.4038C55.0931 6.0627 56.6907 5.09766 58.6997 5.09766C59.0595 5.09766 59.4436 5.12326 59.8033 5.20547V9.47573C59.1969 9.31085 58.6449 9.19942 58.0139 9.19942C55.6997 9.19942 54.4863 10.7968 54.4863 12.5873V19.6651H49.8066V5.37363Z" fill="#313131"/>
<path d="M0.846802 0.090332H9.99773C13.7085 0.090332 17.1972 1.79296 17.1972 6.51114C17.1972 11.4504 14.3792 13.377 9.99773 13.377H6.03792V20.019H0.846802V0.090332ZM6.03792 9.35495H9.21585C10.8351 9.35495 12.0061 8.68615 12.0061 6.87069C12.0061 5.00128 10.8072 4.25089 9.21585 4.25089H6.03792V9.35495Z" fill="#313131"/>
<path d="M149.254 19.7175H144.557V16.3828H149.254V19.7175Z" fill="#313131"/>
</svg>
