<svg width="156" height="33" viewBox="0 0 156 33" fill="none" xmlns="http://www.w3.org/2000/svg">
<path fill-rule="evenodd" clip-rule="evenodd" d="M124.794 22.2089C125.023 21.5406 125.109 20.6979 125.109 19.303C125.109 17.9078 125.023 17.0942 124.794 16.3968C124.336 15.0019 123.277 14.3042 121.76 14.3042C120.242 14.3042 119.211 15.0307 118.753 16.3968C118.524 17.1524 118.438 18.0534 118.438 19.303C118.438 20.5817 118.524 21.4824 118.753 22.2089C119.211 23.575 120.242 24.3304 121.76 24.3304C123.277 24.3304 124.336 23.6038 124.794 22.2089ZM125.396 26.2776C125.224 26.2776 125.109 26.1614 125.109 25.987V24.6504H125.081C124.422 25.7543 123.248 26.5971 121.187 26.5971C118.811 26.5971 117.15 25.4637 116.463 23.2549C116.091 22.151 115.976 21.0467 115.976 19.303C115.976 17.5884 116.091 16.4838 116.463 15.3796C117.15 13.1708 118.811 12.0374 121.187 12.0374C123.248 12.0374 124.422 12.8513 125.081 13.9553H125.109V6.80652C125.109 6.6321 125.224 6.51562 125.396 6.51562H127.228C127.4 6.51562 127.514 6.6321 127.514 6.80652V25.987C127.514 26.1614 127.4 26.2776 127.228 26.2776H125.396ZM139.311 21.7732V20.2327C139.311 20.1165 139.254 20.0583 139.139 20.0583H136.391C134.014 20.0583 132.983 20.756 132.983 22.325C132.983 23.7493 134.014 24.505 135.847 24.505C137.994 24.505 139.311 23.4878 139.311 21.7732ZM139.655 26.2775C139.483 26.2775 139.368 26.1614 139.368 25.9869V24.7665H139.34C138.71 25.8125 137.364 26.5973 135.274 26.5973C132.669 26.5973 130.665 25.2315 130.665 22.4124C130.665 19.4773 132.669 18.1113 136.019 18.1113H139.139C139.254 18.1113 139.311 18.0533 139.311 17.9369V16.9197C139.311 15.0018 138.566 14.1879 136.019 14.1879C134.472 14.1879 133.499 14.5947 132.697 15.1762C132.554 15.2924 132.382 15.2924 132.296 15.1468L131.523 13.8102C131.438 13.6358 131.466 13.5196 131.581 13.4034C132.611 12.5898 134.215 12.0376 136.247 12.0376C140.141 12.0376 141.63 13.3452 141.63 16.7747V25.9869C141.63 26.1614 141.516 26.2775 141.344 26.2775H139.655ZM145.353 31.5086C145.181 31.5086 145.067 31.3924 145.067 31.218V29.5325C145.067 29.3581 145.181 29.2419 145.353 29.2419H145.869C146.985 29.2419 147.586 28.748 148.188 27.1493L148.646 25.8709L143.607 12.6476C143.549 12.4734 143.635 12.357 143.836 12.357H145.84C146.012 12.357 146.126 12.4443 146.183 12.6476L149.791 22.7032H149.848L153.313 12.6476C153.37 12.4443 153.485 12.357 153.656 12.357H155.603C155.775 12.357 155.889 12.4734 155.832 12.6476L150.421 27.3531C149.218 30.6367 148.159 31.5086 146.098 31.5086H145.353Z" fill="#313131"/>
<path fill-rule="evenodd" clip-rule="evenodd" d="M75.8339 12.4152C75.8339 10.2647 74.431 8.92776 72.026 8.92776H67.6741C67.5597 8.92776 67.5023 8.98599 67.5023 9.10219V15.7283C67.5023 15.8444 67.5597 15.9024 67.6741 15.9024H72.026C74.431 15.9024 75.8339 14.5658 75.8339 12.4152ZM65.2404 26.2774C65.0689 26.2774 64.9541 26.1612 64.9541 25.9868V6.80633C64.9541 6.63218 65.0689 6.51571 65.2404 6.51571H72.1692C75.9197 6.51571 78.3534 8.84068 78.3534 12.4152C78.3534 15.9898 75.9197 18.3145 72.1692 18.3145H67.6741C67.5597 18.3145 67.5023 18.3727 67.5023 18.4889V25.9868C67.5023 26.1612 67.3878 26.2774 67.216 26.2774H65.2404ZM84.2812 26.4229C81.8759 26.4229 80.9311 25.2605 80.9311 22.7611V6.80652C80.9311 6.6321 81.0456 6.51562 81.2174 6.51562H83.0498C83.2217 6.51562 83.3362 6.6321 83.3362 6.80652V22.6157C83.3362 23.7782 83.7656 24.1559 84.7104 24.1559H85.2546C85.4262 24.1559 85.5406 24.2721 85.5406 24.4465V26.132C85.5406 26.3065 85.4262 26.4229 85.2546 26.4229H84.2812ZM96.0204 21.7731V20.2326C96.0204 20.1165 95.9631 20.0582 95.8486 20.0582H93.1001C90.7235 20.0582 89.6927 20.7559 89.6927 22.325C89.6927 23.7492 90.7235 24.5049 92.5559 24.5049C94.7033 24.5049 96.0204 23.4877 96.0204 21.7731ZM96.3638 26.2775C96.192 26.2775 96.0775 26.1613 96.0775 25.9868V24.7664H96.0488C95.4191 25.8124 94.0733 26.5972 91.9833 26.5972C89.378 26.5972 87.3738 25.2314 87.3738 22.4123C87.3738 19.4772 89.378 18.1112 92.7278 18.1112H95.8486C95.9631 18.1112 96.0204 18.0533 96.0204 17.9368V16.9196C96.0204 15.0017 95.2757 14.1878 92.7278 14.1878C91.1817 14.1878 90.2083 14.5946 89.4064 15.1762C89.2635 15.2923 89.0917 15.2923 89.0056 15.1468L88.2324 13.8101C88.1469 13.6357 88.1753 13.5195 88.2898 13.4033C89.3206 12.5897 90.9241 12.0376 92.9567 12.0376C96.8507 12.0376 98.3394 13.3451 98.3394 16.7746V25.9868C98.3394 26.1613 98.2249 26.2775 98.0531 26.2775H96.3638ZM110.966 26.2775C110.795 26.2775 110.68 26.1613 110.68 25.9869V17.8495C110.68 15.6119 109.678 14.3041 107.616 14.3041C105.756 14.3041 104.467 15.6413 104.467 17.7045V25.9869C104.467 26.1613 104.353 26.2775 104.181 26.2775H102.348C102.177 26.2775 102.062 26.1613 102.062 25.9869V12.6477C102.062 12.4735 102.177 12.3571 102.348 12.3571H104.181C104.353 12.3571 104.467 12.4735 104.467 12.6477V13.9264H104.496C105.154 12.8512 106.471 12.0373 108.332 12.0373C111.31 12.0373 113.085 14.1008 113.085 17.2685V25.9869C113.085 26.1613 112.971 26.2775 112.799 26.2775H110.966Z" fill="#313131"/>
<path fill-rule="evenodd" clip-rule="evenodd" d="M41.0611 13.4404C40.4568 10.6546 38.9689 8.02012 36.5759 5.98216C30.7287 1.00194 22.4362 1.98695 17.7594 7.64437L17.7592 7.64464L17.7589 7.64492L0.772099 28.1934C-0.33001 29.5267 -0.244223 31.0098 0.978642 32.0513C2.20151 33.0929 3.6555 32.921 4.75761 31.5879L14.9288 19.2839L21.698 11.0958L21.6993 11.0969C21.7146 11.0778 21.7291 11.0581 21.7447 11.0392C21.8373 10.9272 21.9318 10.819 22.0277 10.7134C22.0433 10.6964 22.0597 10.6801 22.0753 10.6629C25.1794 7.30854 30.0627 7.24781 33.2709 9.98015C33.2709 9.98015 33.29 9.99236 33.3261 10.0126C37.0944 13.268 36.8942 18.4811 34.2452 21.6854C34.1528 21.7972 33.9304 22.0446 33.9146 22.0615C30.8107 25.4158 26.0012 25.4879 22.664 22.7118C21.9673 22.11 21.4064 21.4414 20.9718 20.7307C20.4505 19.8785 19.2621 19.7925 18.628 20.5618L16.4494 23.2037C17.2024 24.4999 18.1892 25.6992 19.414 26.7425C25.2611 31.7224 33.5537 30.7374 38.2304 25.0803C38.2304 25.0803 41.9684 20.6805 41.0611 13.4404Z" fill="#313131"/>
<path fill-rule="evenodd" clip-rule="evenodd" d="M41.0697 13.442L51.2411 1.13823C52.3432 -0.195079 53.7969 -0.366734 55.0198 0.674568C56.2427 1.71615 56.3287 3.19948 55.2266 4.53252L38.2305 25.0796C33.5538 30.737 25.261 31.7217 19.4138 26.7418C18.1893 25.6988 17.2025 24.4992 16.4493 23.2033L18.6278 20.5611C19.2622 19.7921 20.4506 19.8781 20.9719 20.7302C21.4066 21.4407 21.9759 22.1115 22.6726 22.7133C25.9841 25.4786 30.8054 25.4179 33.9095 22.0636C33.9136 22.0591 34.1721 21.7693 34.2401 21.6873L41.0697 13.442Z" fill="#313131"/>
</svg>
