<svg width="136" height="23" viewBox="0 0 136 23" fill="none" xmlns="http://www.w3.org/2000/svg">
<path d="M120.342 13.7793C120.342 8.37568 121.812 4.59311 128.094 4.59311C134.376 4.59311 135.847 8.37568 135.847 13.7793C135.847 19.183 134.376 22.9656 128.094 22.9656C121.946 22.9656 120.342 19.183 120.342 13.7793ZM131.971 13.7793C131.971 9.99678 131.436 7.83531 128.228 7.83531C125.02 7.83531 124.485 9.99678 124.485 13.7793C124.485 17.5619 125.02 19.7234 128.228 19.7234C131.436 19.7234 131.971 17.4268 131.971 13.7793ZM13.0102 22.2901C13.1438 22.4252 13.2775 22.5603 13.4112 22.5603H14.8815C15.1488 22.5603 15.4161 22.2901 15.4161 22.0199V5.40366C15.4161 5.13348 15.1488 4.8633 14.8815 4.8633H12.0745C11.8072 4.8633 11.5399 5.13348 11.5399 5.40366V18.5075C10.3369 19.183 8.8666 19.5883 7.52997 19.5883C5.65868 19.5883 4.72304 18.7777 4.72304 17.0215V5.40366C4.72304 5.13348 4.45571 4.8633 4.18839 4.8633H1.38146C1.11413 4.8633 0.846802 5.13348 0.846802 5.40366V17.2917C0.846802 20.669 2.45076 22.9656 6.86165 22.9656C8.8666 22.9656 10.8716 22.2901 12.4755 21.0743L13.0102 22.2901ZM45.624 10.1319C45.624 6.75458 44.0201 4.45802 39.8765 4.45802C37.8716 4.45802 36.0003 5.13348 34.2626 6.21421C33.5943 5.13348 32.124 4.45802 29.8518 4.45802C27.9805 4.45802 26.1092 5.13348 24.6389 6.34931L24.1042 5.13348C23.9706 4.99839 23.8369 4.8633 23.7032 4.8633H22.2329C21.9656 4.8633 21.6983 5.13348 21.6983 5.40366V22.0199C21.6983 22.2901 21.9656 22.5603 22.2329 22.5603H25.1735C25.4409 22.5603 25.7082 22.2901 25.7082 22.0199V8.91605C26.7775 8.24059 28.1141 7.83531 29.3171 7.83531C30.9211 7.83531 31.8567 8.37568 31.8567 10.1319V22.0199C31.8567 22.2901 32.124 22.5603 32.3914 22.5603H35.332C35.5993 22.5603 35.8666 22.2901 35.8666 22.0199V8.91605C36.9359 8.24059 38.2725 7.83531 39.4755 7.83531C40.9458 7.83531 42.0151 8.37568 42.0151 10.1319V22.0199C42.0151 22.2901 42.2824 22.5603 42.5498 22.5603H45.4904C45.7577 22.5603 46.025 22.2901 46.025 22.0199L45.624 10.1319ZM54.5795 21.0743C56.1834 22.2901 58.1884 22.9656 60.1933 22.9656C65.2725 22.9656 67.1438 19.4532 67.1438 13.7793C67.1438 8.1055 65.2725 4.59311 60.1933 4.59311C58.5894 4.59311 56.8518 5.13348 55.5151 5.94403V0.540366C55.5151 0.270183 55.2478 0 54.9805 0H52.0399C51.7725 0 51.6389 0.270183 51.6389 0.540366V22.0199C51.6389 22.2901 51.9062 22.5603 52.1735 22.5603H53.6438C53.7775 22.5603 54.0448 22.4252 54.0448 22.2901L54.5795 21.0743ZM59.2577 19.5883C57.9211 19.5883 56.5844 19.183 55.5151 18.5075V8.91605C56.7181 8.24059 57.9211 7.83531 59.2577 7.83531C62.7329 7.83531 63.1339 10.5371 63.1339 13.7793C63.1339 17.0215 62.7329 19.5883 59.2577 19.5883ZM81.5795 7.9704C81.1785 7.9704 80.6438 7.83531 80.2428 7.83531C78.6389 7.83531 77.1686 8.1055 75.8319 8.91605V22.0199C75.8319 22.2901 75.5646 22.5603 75.2973 22.5603H72.3567C72.0894 22.5603 71.8221 22.2901 71.8221 22.0199V5.40366C71.8221 5.13348 72.0894 4.8633 72.3567 4.8633H73.827C73.9607 4.8633 74.228 4.99839 74.228 5.13348L74.7626 6.34931C76.3666 5.13348 78.2379 4.45802 80.2428 4.45802C80.6438 4.45802 81.1785 4.45802 81.5795 4.59311C81.8468 4.59311 82.1141 4.99839 82.1141 5.26857V7.43004C82.1141 7.70022 81.8468 7.9704 81.5795 7.9704ZM91.6042 14.4548C89.8666 14.725 88.7973 15.2654 88.7973 17.1566C88.7973 18.5075 89.332 19.7234 91.4706 19.7234C92.8072 19.7234 94.1438 19.3181 95.2131 18.5075V13.9144L91.6042 14.4548ZM96.2824 21.0743C94.8121 22.2901 92.9409 22.9656 91.0696 22.9656C86.525 22.9656 85.0547 20.1286 85.0547 17.2917C85.0547 13.5092 87.4607 11.8881 91.4706 11.4828L95.3468 11.2126V10.4021C95.3468 8.64586 94.5448 7.83531 91.8716 7.83531C90.2676 7.83531 88.6636 8.1055 87.0597 8.64586H86.926C86.6587 8.64586 86.3914 8.37568 86.3914 8.1055V5.80894C86.3914 5.53876 86.525 5.40366 86.7924 5.26857C88.53 4.72821 90.4013 4.32293 92.1389 4.32293C97.8864 4.32293 99.223 6.88967 99.223 10.5371V21.7497C99.223 22.0199 98.9557 22.2901 98.6884 22.2901H97.2181C97.0844 22.2901 96.8171 22.155 96.8171 22.0199L96.2824 21.0743ZM116.065 18.9128H116.198C116.466 18.9128 116.733 19.183 116.733 19.4532V21.7497C116.733 22.0199 116.599 22.155 116.466 22.2901C114.995 22.8305 113.525 23.1007 111.921 22.9656C105.773 22.9656 103.901 19.183 103.901 13.7793C103.901 8.37568 105.773 4.59311 111.921 4.59311C113.391 4.59311 114.995 4.72821 116.332 5.26857C116.466 5.40366 116.599 5.53876 116.599 5.80894V8.1055C116.599 8.37568 116.332 8.64586 116.065 8.64586H115.931C114.728 8.24059 113.391 8.1055 112.055 8.1055C108.713 8.1055 107.644 10.4021 107.644 13.9144C107.644 17.4268 108.579 19.7234 112.055 19.7234C113.525 19.4532 114.862 19.3181 116.065 18.9128Z" fill="#313131"/>
</svg>
