<svg width="72" height="12" viewBox="0 0 72 12" fill="none" xmlns="http://www.w3.org/2000/svg">
<path d="M6 0L7.34708 4.1459H11.7063L8.17963 6.7082L9.52671 10.8541L6 8.2918L2.47329 10.8541L3.82037 6.7082L0.293661 4.1459H4.65292L6 0Z" fill="#F5B91E"/>
<path d="M21 0L22.3471 4.1459H26.7063L23.1796 6.7082L24.5267 10.8541L21 8.2918L17.4733 10.8541L18.8204 6.7082L15.2937 4.1459H19.6529L21 0Z" fill="#F5B91E"/>
<path d="M36 0L37.3471 4.1459H41.7063L38.1796 6.7082L39.5267 10.8541L36 8.2918L32.4733 10.8541L33.8204 6.7082L30.2937 4.1459H34.6529L36 0Z" fill="#F5B91E"/>
<path d="M51 0L52.3471 4.1459H56.7063L53.1796 6.7082L54.5267 10.8541L51 8.2918L47.4733 10.8541L48.8204 6.7082L45.2937 4.1459H49.6529L51 0Z" fill="#F5B91E"/>
<path d="M66 0L67.3471 4.1459H71.7063L68.1796 6.7082L69.5267 10.8541L66 8.2918L62.4733 10.8541L63.8204 6.7082L60.2937 4.1459H64.6529L66 0Z" fill="#F5B91E"/>
</svg>
